<?xml version="1.0" encoding="UTF-8"?>
<svg width="32px" height="32px" viewBox="0 0 32 32" version="1.1" xmlns="http://www.w3.org/2000/svg" xmlns:xlink="http://www.w3.org/1999/xlink">
    <!-- Generator: Sketch 42 (36781) - http://www.bohemiancoding.com/sketch -->
    <title>btn_menu</title>
    <desc>Created with Sketch.</desc>
    <defs></defs>
    <g id="Symbols" stroke="none" stroke-width="1" fill="none" fill-rule="evenodd">
        <g id="btn_menu" fill="#FFFFFF">
            <path d="M16,0 C7.17168417,0 0,7.17168417 0,16 C0,24.8283158 7.17168417,32 16,32 C24.8283158,32 32,24.8283158 32,16 C32,7.17168417 24.8283158,0 16,0 Z M16,1.39130435 C24.0763993,1.39130435 30.6086957,7.9236007 30.6086957,16 C30.6086957,24.0763993 24.0763993,30.6086957 16,30.6086957 C7.9236007,30.6086957 1.39130435,24.0763993 1.39130435,16 C1.39130435,7.9236007 7.9236007,1.39130435 16,1.39130435 Z M8.91304348,11.1304348 C8.5288454,11.1664534 8.24659015,11.5071063 8.28260872,11.8913043 C8.31862729,12.2755024 8.65928018,12.5577577 9.04347826,12.5217391 L22.9565217,12.5217391 C23.2073989,12.5252872 23.4407523,12.3934781 23.5672262,12.1767841 C23.6937002,11.9600902 23.6937002,11.6920838 23.5672262,11.4753898 C23.4407523,11.2586959 23.2073989,11.1268868 22.9565217,11.1304348 L9.04347826,11.1304348 C9.02175108,11.1294153 8.99998805,11.1294153 8.97826087,11.1304348 C8.95653367,11.1294163 8.93477068,11.1294163 8.91304348,11.1304348 L8.91304348,11.1304348 Z M8.91304348,15.3043478 C8.5288454,15.3403664 8.24659015,15.6810193 8.28260872,16.0652174 C8.31862729,16.4494155 8.65928018,16.7316707 9.04347826,16.6956522 L22.9565217,16.6956522 C23.2073989,16.6992002 23.4407523,16.5673911 23.5672262,16.3506971 C23.6937002,16.1340032 23.6937002,15.8659968 23.5672262,15.6493029 C23.4407523,15.4326089 23.2073989,15.3007998 22.9565217,15.3043478 L9.04347826,15.3043478 C9.02175108,15.3033283 8.99998805,15.3033283 8.97826087,15.3043478 C8.95653367,15.3033294 8.93477068,15.3033294 8.91304348,15.3043478 Z M8.91304348,19.4782609 C8.5288454,19.5142795 8.24659015,19.8549324 8.28260872,20.2391304 C8.31862729,20.6233285 8.65928018,20.9055838 9.04347826,20.8695652 L22.9565217,20.8695652 C23.2073989,20.8731132 23.4407523,20.7413041 23.5672262,20.5246102 C23.6937002,20.3079162 23.6937002,20.0399098 23.5672262,19.8232159 C23.4407523,19.6065219 23.2073989,19.4747128 22.9565217,19.4782609 L9.04347826,19.4782609 C9.02175108,19.4772414 8.99998805,19.4772414 8.97826087,19.4782609 C8.95653367,19.4772424 8.93477068,19.4772424 8.91304348,19.4782609 Z"></path>
        </g>
    </g>
</svg>