<?xml version="1.0" encoding="UTF-8"?>
<svg width="58px" height="58px" viewBox="0 0 58 58" version="1.1" xmlns="http://www.w3.org/2000/svg" xmlns:xlink="http://www.w3.org/1999/xlink">
    <!-- Generator: Sketch 42 (36781) - http://www.bohemiancoding.com/sketch -->
    <title>btn_label_02</title>
    <desc>Created with Sketch.</desc>
    <defs>
        <linearGradient x1="50%" y1="100%" x2="50%" y2="0%" id="linearGradient-1">
            <stop stop-color="#0F5BF3" offset="0%"></stop>
            <stop stop-color="#2196F3" offset="96%"></stop>
        </linearGradient>
        <linearGradient x1="50.0469076%" y1="91.2269518%" x2="50.0469076%" y2="-7.15813645%" id="linearGradient-2">
            <stop stop-color="#9ECA4E" offset="0%"></stop>
            <stop stop-color="#92BE39" offset="26%"></stop>
            <stop stop-color="#B6E639" offset="66%"></stop>
            <stop stop-color="#CDFE39" offset="96%"></stop>
        </linearGradient>
    </defs>
    <g id="Symbols" stroke="none" stroke-width="1" fill="none" fill-rule="evenodd">
        <g id="btn_label_02" fill-rule="nonzero">
            <g id="圖層_2">
                <g>
                    <g>
                        <g id="圖層_1-2">
                            <path d="M57.72,28.86 C57.72,44.7989379 44.7989379,57.72 28.86,57.72 C12.9210621,57.72 1.95195693e-15,44.7989379 0,28.86 C-1.95195693e-15,12.9210621 12.9210621,2.92793539e-15 28.86,0 C44.7943664,0.0110310641 57.7089689,12.9256336 57.72,28.86" id="Shape" fill="url(#linearGradient-1)"></path>
                            <path d="M28.57,42.13 L28.57,42.1 C28.7797786,42.9739489 28.6771853,43.8937509 28.28,44.7 C28.0750901,45.6350782 27.6839833,46.5193197 27.13,47.3 C26.6253727,47.7845703 26.0398856,48.1771512 25.4,48.46 C24.53,49.06 23.96,50.19 23.09,51.06 C23.09,51.33 21.94,53.06 21.65,53.06 C19.8469971,52.4657738 18.1082639,51.6918867 16.46,50.75 C16.46,50.44 16.17,48.73 16.17,48.44 C15.88,47.55 15.59,46.42 15.3,45.55 C14.72,44.1 13.57,42.66 13.57,40.93 C13.57,39.53 13.86,38.09 12.99,36.93 C11.83,35.49 9.52,35.49 8.37,34.62 C6.57295113,33.4544228 5.08679759,31.8687348 4.04,30 C3.17,28.6 3.46,27.44 3.75,26 C4.06200402,23.9362623 4.54704725,21.9024259 5.2,19.92 C6.39,17.03 8.08,13.57 10.39,11.55 C12.7,9.53 17.31,8.37 20.2,9.24 C21.0698735,9.54343608 21.8620499,10.0351318 22.52,10.68 C23.09,11.26 23.96,12.12 23.96,12.99 C23.96,13.28 23.96,13.28 23.67,13.57 C23.4389862,13.7936029 23.1189728,13.9002741 22.8,13.86 C22.0182049,13.9253343 21.2313846,13.8265559 20.49,13.57 L19.34,12.42 C17.61,11.85 15.01,15.6 14.72,16.75 C14.43,17.62 14.43,19.64 15.87,19.93 C16.73,19.93 18.46,18.2 19.33,17.62 C19.9,17.33 20.19,17.04 20.77,16.75 C23.08,16.5 24.81,18.5 25.39,20.5 C26.26,22.81 21.93,24.54 20.2,25.12 C19.63,25.41 19.34,24.83 18.76,25.12 C17.32,25.66 15.59,27.39 15.59,29.12 C15.3,30.56 15.3,32.01 15.01,33.45 C14.72,33.45 14.43,33.45 14.43,33.16 L14.43,32.58 C14.43,31.71 14.15,30.56 13.28,30.27 C12.99,29.98 12.99,29.98 12.7,29.98 C11.83,29.98 10.97,29.11 10.1,29.69 C9.44127284,30.2890887 9.03096158,31.1132791 8.95,32 C8.89602063,32.3370833 9.00768904,32.6795331 9.25,32.92 C9.83,33.21 10.4,32.63 10.98,32.92 C11.56,32.92 11.56,33.5 11.56,33.79 C12.12,34.66 12.69,35.81 13.56,36.1 L19.32,36.1 C20.3449695,36.3053491 21.3241669,36.6949951 22.21,37.25 C22.5,37.83 22.5,38.4 22.79,38.98 C24.24,40.4 25.97,40.4 27.7,40.98 C28.28,41.26 28.57,41.55 28.57,42.13 Z M29.15,15.58 L28.84,15.62 C28.26,15.04 28.26,13.6 28.26,12.73 C28.26,11.29 29.13,10.42 28.84,8.98 C28.84,8.69 28.55,6.38 28.55,6.38 C27.42,6.09 26.26,6.38 26.55,4.94 C26.86,4.08 27.99,3.79 28.86,3.79 C31.1009903,3.79173246 33.3325128,4.08075496 35.5,4.65 C36.08,4.93 37.52,5.22 37.81,5.8 C38.1,6.67 37.23,7.82 36.94,8.4 C36.6439417,9.42372558 36.0399228,10.3314996 35.21,11 C34.5037966,11.7369736 33.7304533,12.4065349 32.9,13 C32.03,13.56 31.17,14.42 30.3,15 C29.73,15.29 29.44,15.58 29.15,15.58 Z M53.39,35.78 L53.4,35.69 C52.6553572,38.0933958 51.4832548,40.3427484 49.94,42.33 C48.1965115,45.1270326 45.944309,47.5725718 43.3,49.54 C43.02,48.43 42.44,46.98 42.15,45.54 C41.6376057,44.4336484 41.2518265,43.2729565 41,42.08 C40.71,41.21 40.71,39.77 39.85,38.9 C39.56,38.33 38.99,38.33 38.41,38.04 C36.35,37.18 33.79,38.31 32.35,36.31 C31.77,35.42 32.06,34.57 32.06,33.42 C32.64,32.55 32.92,31.68 33.5,30.82 C34.07,29.42 34.94,28.26 35.23,26.82 C35.52,26.26 35.23,25.4 35.52,24.82 C35.9590141,24.467023 36.4433178,24.1744229 36.96,23.95 C37.25,23.66 37.54,23.66 37.54,23.37 C37.54,23.08 37.25,23.08 37.25,22.79 C37.3236915,22.3571956 37.525766,21.9565308 37.83,21.64 C39.27,20.24 40.72,19.08 42.16,17.64 C42.2377458,17.64283 42.3131642,17.6131862 42.3681752,17.5581752 C42.4231862,17.5031642 42.45283,17.4277458 42.45,17.35 C42.74,17.06 42.45,16.77 42.16,16.77 C41.59,16.48 41.3,16.48 40.72,16.19 C40.43,16.19 40.14,16.19 40.14,15.9 C39.85,15.62 40.14,15.04 40.43,14.75 L42.16,12.15 C42.72,11.59 43.29,10.44 44.16,10.15 C46.75,9 48.2,13.04 49.35,14.48 C50.4735341,15.6275747 51.3573771,16.987333 51.95,18.48 C52.2137126,19.3964534 52.604152,20.2715762 53.11,21.08 C53.9346194,23.7913948 54.3228004,26.6166777 54.26,29.45 C54.3079267,30.899392 54.2107766,32.3499438 53.97,33.78 C53.68,34.34 53.68,35.2 53.39,35.78 Z" id="Combined-Shape" fill="url(#linearGradient-2)"></path>
                        </g>
                    </g>
                </g>
            </g>
        </g>
    </g>
</svg>