<?xml version="1.0" encoding="UTF-8"?>
<svg width="160px" height="60px" viewBox="0 0 160 60" version="1.1" xmlns="http://www.w3.org/2000/svg" xmlns:xlink="http://www.w3.org/1999/xlink">
    <!-- Generator: Sketch 42 (36781) - http://www.bohemiancoding.com/sketch -->
    <title>ic_tddc_logo</title>
    <desc>Created with Sketch.</desc>
    <defs></defs>
    <g id="Symbols" stroke="none" stroke-width="1" fill="none" fill-rule="evenodd">
        <g id="ic_tddc_logo">
            <g>
                <g>
                    <path d="M96.0772811,3.38972611 L96.6624885,5.66853926 L105.463548,5.66853926 L105.463548,7.97841144 L102.939124,7.97841144 L102.939124,6.66242848 L98.0968203,6.11716981 L98.0968203,16.5461047 L102.939124,15.9364273 L102.939124,15.165703 L119.852765,15.165703 L119.852765,16.2941814 L120.369124,16.1975533 L119.657696,16.8072307 L98.3607373,16.8072307 L98.968894,19.3103591 L122.962396,19.3103591 L124.396728,17.8988984 L122.193594,15.9099696 L124.695069,15.4923981 L124.695069,10.6149787 L126.094977,9.52446135 L121.459217,5.99523433 L119.852765,7.98531345 L117.190645,7.98531345 L117.190645,5.66738892 L125.234378,5.66738892 L126.576912,4.35140596 L123.788571,1.88048691 L122.090323,3.38857578 L96.0772811,3.38857578 L96.0772811,3.38972611 Z M105.463548,12.8880402 L102.939124,12.8880402 L102.939124,10.320493 L105.463548,10.320493 L105.463548,12.8868898 L105.463548,12.8880402 Z M117.190645,12.8880402 L117.190645,10.320493 L119.852765,10.320493 L119.852765,12.8868898 L117.190645,12.8868898 L117.190645,12.8880402 Z M109.984562,12.8880402 L109.984562,10.320493 L112.704055,10.320493 L112.704055,12.8868898 L109.984562,12.8868898 L109.984562,12.8880402 Z M109.984562,5.66853926 L112.704055,5.66853926 L112.704055,7.97841144 L109.984562,7.97841144 L109.984562,5.66738892 L109.984562,5.66853926 Z M95.9854839,20.9748935 L96.5936406,23.4458125 L101.298249,23.4458125 C100.730752,24.3626147 100.089888,25.231676 99.3819816,26.0444187 C98.3044314,27.5224258 97.0693453,28.8782462 95.6986175,30.0878454 L97.5575115,31.9168777 C100.811984,30.0510153 103.741888,27.6666523 106.23235,24.8572733 L103.604654,23.4458125 L108.89447,23.4458125 L108.89447,27.6479854 C108.89447,27.9470724 108.653502,28.0966159 108.160092,28.0966159 C106.920829,27.9685453 105.670092,27.8400913 104.40788,27.7112538 L104.247235,30.021126 C106.496267,30.0855447 107.609309,30.9413938 107.609309,32.5875228 L110.684516,32.5875228 C112.910599,32.5875228 114.023641,31.3359586 114.023641,28.8328302 L114.023641,23.4446622 L116.972627,23.4446622 L115.331751,24.5351795 C117.780234,26.641588 119.869316,29.1345502 121.51659,31.9157273 L126.037604,28.7385027 C123.6432,26.7082059 121.043418,24.9346995 118.280737,23.4469629 L125.303226,23.4469629 L126.771982,22.0355021 L123.926267,19.467955 L122.159171,20.9760438 L95.9854839,20.9760438 L95.9854839,20.9748935 Z M128.6653,10.0006999 C130.147463,11.6172807 131.416243,13.4181175 132.440461,15.3589592 L135.997604,11.7653135 C134.425117,10.2857509 132.670605,9.01354495 130.776636,7.97956178 L128.6653,10.0006999 Z M129.078387,16.9314668 L129.720968,19.3701765 L131.935576,19.3701765 L131.935576,24.5041205 C131.935576,25.2710103 130.81106,26.8431345 128.562028,29.220493 L131.453641,32.8141388 C132.639649,31.1822352 133.629484,29.4157678 134.402627,27.5513573 C135.93164,30.3735733 138.911126,32.0968405 142.113594,32.0112051 L158.361705,32.0112051 L159.70424,27.5835666 L141.93,27.5835666 C138.728571,27.5835666 136.953825,26.5889105 136.60576,24.5995983 L136.60576,19.530073 L137.890922,18.2462995 L133.920691,14.876969 L131.79788,16.9303165 L129.078387,16.9303165 L129.078387,16.9314668 Z M130.81106,4.32149726 C132.226984,5.73746907 133.436136,7.34698939 134.402627,9.1022885 L137.822074,5.60527085 C136.341261,4.31726441 134.707081,3.21800288 132.95682,2.33256847 L130.81106,4.32149726 Z M138.407281,26.9117712 L142.951244,26.3020937 L142.951244,20.2053195 L145.774009,20.2053195 L145.774009,26.6230371 L150.283548,26.1744066 L150.283548,24.4719111 C151.19478,24.6891569 151.794472,25.562126 151.671982,26.4930493 L154.609493,26.4930493 C156.812627,26.4930493 157.914194,25.4661838 157.914194,23.4124528 L157.914194,12.2461534 L159.291152,10.897961 L155.091429,7.75294583 L152.911244,9.4531406 L151.958848,9.4531406 L152.532581,8.77904443 C152.360461,8.65020694 152.165392,8.52251978 151.958848,8.39368229 L155.252074,6.20804626 L158.52235,5.43847231 L153.748894,2.06914181 L151.247419,3.25628728 L138.10894,3.25628728 L138.659724,5.59836884 L144.133134,5.59836884 L143.306959,6.74870359 C144.505174,7.57501673 145.651022,8.47516213 146.73788,9.44393792 L142.951244,9.44393792 L142.951244,8.49146074 L138.407281,7.97841144 L138.407281,26.9106208 L138.407281,26.9117712 Z M150.283548,20.2053195 L153.358756,20.2053195 L153.358756,21.3556543 C153.409255,21.5589027 153.362301,21.7741338 153.23178,21.9376934 C153.101258,22.1012531 152.902108,22.1944225 152.693226,22.189647 C151.924424,22.189647 151.121198,22.1574376 150.283548,22.0930189 L150.283548,20.2053195 Z M150.283548,17.7988192 L150.283548,16.0641144 L153.358756,16.0641144 L153.358756,17.7965186 L150.283548,17.7965186 L150.283548,17.7988192 Z M150.283548,13.6576141 L150.283548,12.0218381 L153.358756,12.0218381 L153.358756,13.6587645 L150.283548,13.6587645 L150.283548,13.6576141 Z M145.774009,13.6576141 L142.951244,13.6576141 L142.951244,12.0218381 L145.774009,12.0218381 L145.774009,13.6587645 L145.774009,13.6576141 Z M142.951244,17.7988192 L142.951244,16.0641144 L145.774009,16.0641144 L145.774009,17.7965186 L142.951244,17.7965186 L142.951244,17.7988192 Z M150.90318,5.60527085 L149.422949,6.95231284 C148.459078,6.5029154 147.40341,6.0539014 146.255945,5.60527085 L150.90318,5.60527085 Z" id="票通" fill="#000000"></path>
                    <path d="M16.4317051,7.74144248 C16.4720638,10.3185853 15.8433398,12.861969 14.607235,15.1219903 L16.0186175,16.272325 C19.024977,14.218594 20.5281567,11.8976019 20.5281567,9.30934875 L20.5281567,6.04124772 L23.672212,6.04124772 L23.672212,12.7131893 C23.672212,14.4674498 24.6819816,15.3440049 26.7129954,15.3440049 L26.7474194,15.3440049 L24.7623041,16.5311503 L14.5728111,16.5311503 L15.1465438,18.96986 L16.5923502,18.96986 C17.1783715,21.9913118 18.6251395,24.7778105 20.7576498,26.9922946 C19.0189606,28.9090782 16.8579316,30.3924938 14.4465899,31.3244553 L15.536682,33.1534875 C18.4089813,32.5190855 21.1423132,31.3665004 23.6033641,29.7519477 C25.2238418,31.1028939 26.9769834,32.2853693 28.8358065,33.2811747 L32.5765438,28.9168046 C30.6413991,28.1313612 28.7593899,27.2202814 26.9424885,26.1893609 C28.2306087,24.2805173 29.1528311,22.1478602 29.6619816,19.9004808 L31.6815207,18.3279732 L27.5506452,15.3440049 L29.9832719,15.3440049 C31.2913825,15.3440049 32.0946083,14.5387705 32.4158986,12.9375046 C31.8156646,12.3929668 31.5090415,11.5950338 31.5897235,10.7875289 C31.5994558,10.1747786 31.6531428,9.56352384 31.7503687,8.95849665 L29.8570507,8.60534388 L29.3751152,11.0118442 C29.2675049,11.3831609 28.891336,11.6074154 28.5145161,11.5248935 C28.3446209,11.5614979 28.1674016,11.5169535 28.0348298,11.4043236 C27.9022579,11.2916936 27.8293591,11.1237434 27.8375115,10.9497261 L27.8375115,6.36219111 L28.9276037,5.23946439 L25.1753917,2.31991479 L23.4197696,3.73137553 L20.5281567,3.73137553 L20.5281567,2.76739501 L16.4317051,2.38203287 L16.4317051,7.74029215 L16.4317051,7.74144248 Z M24.6360829,18.9721607 C24.3152277,20.5689426 23.7745725,22.1132757 23.0296313,23.560846 C21.4177105,22.2885663 20.0492226,20.7338649 18.990553,18.9721607 L24.6360829,18.9721607 L24.6360829,18.9721607 Z M3.09815668,22.9189592 C3.21408125,26.1028668 2.78324673,29.283061 1.82447005,32.3206452 L3.80958525,33.1546379 C6.26649073,29.8408546 7.53964384,25.7946646 7.42410138,21.667395 L9.8337788,21.667395 L9.8337788,27.7319598 C9.8337788,28.4589714 9.32889401,28.8224772 8.33059908,28.8224772 L6.97658986,28.6936397 L6.65529954,30.9080341 C7.28447646,30.8300109 7.91502111,31.0420881 8.3699474,31.4847383 C8.82487368,31.9273886 9.05514573,32.5528991 8.99612903,33.1856969 L10.9582949,33.1856969 C13.1958525,33.1856969 14.3203687,32.0733232 14.3203687,29.8497261 L14.3203687,6.58650639 L15.3071889,5.46377967 L11.1763134,2.3831832 L9.76493088,4.11558734 L7.42410138,4.11558734 L7.42410138,3.34601339 L3.09815668,2.89738284 L3.09815668,22.9189592 L3.09815668,22.9189592 Z M7.42410138,13.9659038 L9.8337788,13.9659038 L9.8337788,19.1700183 L7.42410138,19.1700183 L7.42410138,13.9670542 L7.42410138,13.9659038 Z M7.42410138,6.61756543 L9.8337788,6.61756543 L9.8337788,11.3983567 L7.42410138,11.3983567 L7.42410138,6.61871576 L7.42410138,6.61756543 Z M52.1523041,5.2693731 L52.1523041,2.8962325 L46.8624885,2.28655508 L46.8624885,5.27052343 L35.1353917,5.27052343 L35.7779724,7.77365186 L46.8624885,7.77365186 L46.8624885,9.82699939 L42.3185253,9.82699939 L42.3185253,9.1851126 L37.315576,8.57543518 L37.315576,22.8234814 L42.3185253,22.1815946 L42.3185253,20.9944492 L44.1429954,20.9944492 C41.748836,24.7375986 38.422769,27.7904829 34.4928111,29.8520268 L35.7779724,31.8409556 C39.232268,30.5603588 42.4799194,28.7774359 45.416682,26.5494157 C45.9247366,26.2220829 46.4079861,25.857586 46.8624885,25.4588984 L46.8624885,32.9993427 L52.1523041,32.3574559 L52.1523041,23.7529519 C53.0170038,25.0351529 54.0046989,26.2295152 55.1012903,27.3189897 C57.0354071,29.2993604 59.169695,31.0727432 61.4697235,32.6105295 L65.2563594,27.636482 C62.7370958,26.8023106 60.3346782,25.6483541 58.1076498,24.2027328 C56.6281976,23.2314697 55.2172953,22.1591163 53.884977,20.9932988 L56.7306912,20.9932988 L56.7306912,22.4691783 L61.8254378,21.8595009 L61.8254378,13.0364334 L63.0761751,11.6249726 L58.7502304,8.25564212 L56.4438249,9.82814973 L52.1523041,9.82814973 L52.1523041,7.77365186 L63.2941935,7.77365186 L64.74,6.32998174 L61.5959447,3.47370055 L59.6452535,5.27052343 L52.1523041,5.27052343 L52.1523041,5.2693731 Z M42.3185253,16.5323007 L46.8624885,16.5323007 L46.8624885,18.4257517 L42.3185253,18.4257517 L42.3185253,16.533451 L42.3185253,16.5323007 Z M56.7306912,16.5323007 L56.7306912,18.4257517 L52.1523041,18.4257517 L52.1523041,16.533451 L56.7306912,16.533451 L56.7306912,16.5323007 Z M42.3185253,12.3910956 L46.8624885,12.3910956 L46.8624885,14.0590809 L42.3185253,14.0590809 L42.3185253,12.3945466 L42.3185253,12.3910956 Z M56.7306912,12.3910956 L56.7306912,14.0590809 L52.1523041,14.0590809 L52.1523041,12.3945466 L56.7306912,12.3945466 L56.7306912,12.3910956 Z" id="股東" fill="#000000"></path>
                    <path d="M66.7595392,21.2843335 C69.2776953,15.2936505 73.0956282,9.9406801 77.9358525,5.61447352 C83.8223502,0.232057212 90.6153456,-0.964290931 92.462765,1.13737066 C94.3101843,3.23903226 92.7037327,6.8384297 90.9825346,8.59959221 C83.5010599,16.2171089 72.3476959,17.9265064 72.3476959,17.9265064 C72.3476959,17.9265064 69.9150691,23.5447413 70.4888018,27.6272794 C70.61883,29.2795867 71.2698593,30.8475757 72.3476959,32.1043822 C72.3476959,32.1043822 75.5605991,34.893944 82.4109677,30.2385393 C88.1354552,26.2497576 93.2760535,21.4788451 97.6837327,16.0641144 C99.0836406,13.9705052 102.526037,8.60189288 102.526037,8.60189288 L102.893226,8.97460134 C102.893226,8.97460134 96.3756221,19.746336 90.603871,25.0171698 C87.7696313,27.605423 84.9009677,30.8539684 81.2864516,32.4793914 C77.9014286,34.0081862 74.6770507,35.1366646 71.9805069,34.7179428 C67.5053917,34.0231406 63.9482488,29.3205721 66.7595392,21.2843335 Z M73.472212,16.4345222 C73.472212,16.4345222 77.155576,8.2947535 82.7781567,3.74978089 C87.1385253,0.234357882 90.0645622,1.13967133 89.4908295,4.49519781 C88.9170968,7.85072428 85.4173272,11.5858612 83.1568203,12.7028363 C80.1524902,14.4663593 76.881339,15.7268035 73.472212,16.4345222 L73.472212,16.4345222 Z" id="色彩填色_1" fill="#AD292C"></path>
                    <polygon id="矩形_1" fill="#091453" points="0.0114746544 40.3005173 159.658341 40.3005173 159.658341 59.2453804 0.0114746544 59.2453804"></polygon>
                    <path d="M17.0742857,44.9294644 L19.0823502,44.9294644 L19.0823502,46.8930858 C19.0823502,48.0698783 19.323318,48.5288618 20.4019355,48.5288618 L21.2166359,48.5288618 C21.453111,48.539192 21.689654,48.5100361 21.9165899,48.4425867 L21.8247926,47.3670237 C21.615291,47.423863 21.3992497,47.4528694 21.182212,47.4532988 L20.516682,47.4532988 C20.3330876,47.4532988 20.3216129,47.309507 20.3216129,46.9080402 L20.3216129,43.6963055 L15.8809217,43.6963055 L15.8809217,45.2458065 C15.9517011,46.4967282 15.2372162,47.6592919 14.0908756,48.158454 C14.4152277,48.4255065 14.6976111,48.7400073 14.9285253,49.0913755 C16.3284207,48.3439655 17.1663499,46.848093 17.0742857,45.2607608 L17.0742857,44.9294644 L17.0742857,44.9294644 Z M11.0271429,47.4832075 C11.4657791,47.9514572 11.875789,48.4458519 12.2549309,48.9636884 L12.782765,48.5035545 L12.782765,50.1370298 C12.1057604,50.4234632 11.4746544,50.6960925 10.9927189,50.8974011 C11.0156682,50.1519842 11.0271429,49.4192209 11.0271429,48.7738831 L11.0271429,47.4832075 L11.0271429,47.4832075 Z M12.782765,44.886902 L12.782765,47.9283871 C12.3709522,47.4522362 11.9302549,47.001985 11.4631797,46.5801948 L11.0271429,46.8953865 L11.0271429,44.886902 L12.782765,44.886902 L12.782765,44.886902 Z M13.9646544,43.6675472 L9.86820276,43.6675472 L9.86820276,48.8037918 C9.99428235,51.1507763 9.68297755,53.5007631 8.95023041,55.7334084 C9.33516734,55.8772207 9.69524883,56.0806126 10.0173733,56.3361838 C10.606659,54.7016683 10.9245192,52.9813201 10.9582949,51.2436519 L11.3713825,52.1765733 L12.782765,51.2873646 L12.782765,54.7153621 C12.782765,54.9017164 12.7253917,54.9730371 12.5647465,54.9730371 C12.4041014,54.9730371 11.9106912,54.9730371 11.3828571,54.9592331 C11.5468664,55.3591906 11.6587115,55.7786918 11.7156221,56.2073463 C12.3156955,56.2729024 12.9226358,56.1891406 13.4827189,55.9634753 C13.8615025,55.6819017 14.0482668,55.2093658 13.9646544,54.7441205 L13.9646544,43.6721485 L13.9646544,43.6675472 Z M19.7593548,50.6259221 C19.3341581,51.5596626 18.720786,52.3950728 17.9578341,53.0795861 C17.2177794,52.3901404 16.627879,51.5547736 16.2251613,50.6259221 L19.7593548,50.6259221 L19.7593548,50.6259221 Z M20.5970046,49.3340962 L20.3789862,49.3766586 L14.5613364,49.3766586 L14.5613364,50.6247718 L15.4448848,50.6247718 L14.9858986,50.7685636 C15.4643561,51.9112892 16.1402545,52.9603832 16.9824885,53.8675654 C16.0765626,54.4430683 15.0849653,54.8702108 14.044977,55.1329337 C14.3339432,55.4794333 14.5698465,55.8671272 14.7449309,56.2832684 C15.8859177,55.9436787 16.9663356,55.4258001 17.9463594,54.7487219 C18.874681,55.4627245 19.9299679,55.9932488 21.0559908,56.3120268 C21.2758128,55.885505 21.5625007,55.4971202 21.9051152,55.161692 C20.8650726,54.9147368 19.8778287,54.4822246 18.990553,53.8848205 C20.1776467,52.7315481 21.0235162,51.271661 21.4346544,49.6665429 L20.5970046,49.3340962 Z M28.4571429,49.8655508 L31.3487558,49.8655508 L31.3487558,51.0423433 L28.4571429,51.0423433 L28.4571429,49.8644005 L28.4571429,49.8655508 Z M28.4571429,47.7420329 L31.3487558,47.7420329 L31.3487558,48.903871 L28.4571429,48.903871 L28.4571429,47.7420329 Z M35.7664977,47.7420329 L35.7664977,48.903871 L32.6912903,48.903871 L32.6912903,47.7420329 L35.7664977,47.7420329 Z M35.7664977,51.0411929 L32.6912903,51.0411929 L32.6912903,49.8644005 L35.7664977,49.8644005 L35.7664977,51.0411929 L35.7664977,51.0411929 Z M37.0860829,52.0603895 L37.0860829,46.7228363 L32.6912903,46.7228363 L32.6912903,45.6760316 L38.1876498,45.6760316 L38.1876498,44.4279184 L32.6912903,44.4279184 L32.6912903,43.1625502 L31.3487558,43.1625502 L31.3487558,44.4279184 L26.0015668,44.4279184 L26.0015668,45.6760316 L31.3487558,45.6760316 L31.3487558,46.7228363 L27.1949309,46.7228363 L27.1949309,52.0592392 L30.3275115,52.0592392 C28.9836388,53.3668407 27.3753621,54.3699177 25.6114286,55.0006452 C25.9509404,55.3417139 26.2546931,55.716765 26.5179263,56.1199209 C28.3498092,55.3546146 29.997006,54.2049693 31.3487558,52.7482897 L31.3487558,56.2625624 L32.6912903,56.2625624 L32.6912903,52.676969 C34.0857645,54.1873454 35.7828251,55.3853145 37.6712903,56.192392 C37.9382951,55.7725648 38.2499331,55.3830075 38.6007373,55.0305539 C36.7991442,54.3939433 35.1526641,53.3816293 33.7699078,52.0603895 L37.0860829,52.0603895 L37.0860829,52.0603895 Z M50.8786175,52.4480523 L50.8786175,53.237182 L45.5084793,53.237182 L45.5084793,52.446902 L50.8786175,52.446902 L50.8786175,52.4480523 Z M45.5084793,54.9592331 L45.5084793,54.1539988 L50.8786175,54.1539988 L50.8786175,54.9592331 L45.5084793,54.9592331 Z M44.223318,56.3074254 L45.5084793,56.3074254 L45.5084793,55.8656969 L50.8786175,55.8656969 L50.8786175,56.2533597 L52.2211521,56.2533597 L52.2211521,51.5369872 L44.223318,51.5369872 L44.223318,56.3143274 L44.223318,56.3074254 Z M43.7184332,47.2266829 C44.4186624,46.9638099 45.0976721,46.6473001 45.749447,46.2799574 L45.749447,46.6250578 L50.6032258,46.6250578 L50.6032258,46.202885 C51.3206048,46.6101232 52.0733695,46.9512544 52.8522581,47.2220816 L43.7184332,47.2220816 L43.7184332,47.2266829 Z M51.7506912,50.0818138 L50.2704608,50.0818138 C50.5229032,49.6653926 50.8212442,49.0637675 51.1310599,48.4460377 L50.0409677,48.130846 C49.8571294,48.7097627 49.622911,49.2713681 49.3410138,49.8091844 L50.2130876,50.0818138 L48.6410599,50.0818138 L48.6410599,48.099787 L51.7506912,48.099787 L51.7506912,50.0795131 L51.7506912,50.0818138 Z M45.2101382,48.4713451 C45.504517,48.9750734 45.7284548,49.5169645 45.8756682,50.0818138 L44.5331336,50.0818138 L44.5331336,48.099787 L47.5739171,48.099787 L47.5739171,50.0795131 L45.9215668,50.0795131 L46.8395392,49.7643214 C46.6838883,49.2050079 46.4439822,48.6727915 46.1281106,48.1860621 L45.2101382,48.4713451 Z M46.7018433,45.7024893 C47.2466331,45.3487979 47.7575303,44.9452196 48.2279724,44.4969385 C48.7019062,44.950772 49.220976,45.3547316 49.7770507,45.7024893 L46.7018433,45.7024893 L46.7018433,45.7024893 Z M47.97553,43.0774254 C46.3022994,44.9048178 44.0986952,46.1590637 41.6759447,46.6630189 C41.9543428,46.9688902 42.1898306,47.3113948 42.3758986,47.6810651 C42.7316129,47.580986 43.0643779,47.4659525 43.4200922,47.3359647 L43.4200922,50.9514668 L52.8981567,50.9514668 L52.8981567,47.2381862 C53.253871,47.3670237 53.6210599,47.4820572 53.9538249,47.5832867 C54.1864416,47.2111934 54.4639258,46.8692662 54.78,46.5652404 C52.6265731,46.1277675 50.6131619,45.1671295 48.9164516,43.7676263 C49.0082488,43.6813512 49.0541475,43.5812721 49.13447,43.494997 L47.97553,43.0774254 Z M59.8747465,46.2765064 L63.9252995,46.2765064 L63.9252995,49.4042666 L65.2104608,49.4042666 L65.2104608,46.2788071 L69.3183871,46.2788071 L69.3183871,48.5035545 L70.6264977,48.5035545 L70.6264977,45.3746439 L65.2104608,45.3746439 L65.2104608,44.6142727 L69.9494931,44.6142727 L69.9494931,43.6813512 L59.2436406,43.6813512 L59.2436406,44.6142727 L63.9252995,44.6142727 L63.9252995,45.3746439 L58.6354839,45.3746439 L58.6354839,48.5035545 L59.8747465,48.5035545 L59.8747465,46.2788071 L59.8747465,46.2765064 Z M69.1577419,48.6576993 C68.105775,48.3162971 67.0213766,48.0849971 65.9218894,47.9674985 L65.6464977,48.7278698 C66.7480355,48.904498 67.8338773,49.1683673 68.8938249,49.5169994 L69.1577419,48.6576993 Z M68.3659908,46.3340231 C67.7004608,46.5778941 66.598894,46.9793609 65.8415668,47.1657152 L66.2776037,47.8133536 C67.1718825,47.6353317 68.0505687,47.3860686 68.9052995,47.0679367 L68.3659908,46.3340231 Z M60.3222581,49.5043457 C61.2402304,49.3317955 62.2729493,49.1028789 63.3400922,48.8440536 L63.2941935,48.0549239 C62.0549309,48.2412781 60.8615668,48.4276324 59.9780184,48.5426659 L60.3222581,49.5043457 Z M60.3681567,47.1081984 C61.251823,47.2963902 62.1190231,47.5552774 62.9614286,47.8823737 L63.3171429,47.1220024 C62.4827792,46.8120047 61.6226357,46.5767985 60.7468203,46.4191479 L60.3681567,47.1081984 Z M61.1254839,53.2912477 L61.1254839,52.4618564 L63.8679263,52.4618564 L63.8679263,53.2935484 L61.1254839,53.2935484 L61.1254839,53.2912477 Z M63.8679263,50.7950213 L63.8679263,51.6094583 L61.1254839,51.6094583 L61.1254839,50.797322 L63.8679263,50.797322 L63.8679263,50.7950213 Z M68.1135484,51.6129093 L65.1186636,51.6129093 L65.1186636,50.797322 L68.1135484,50.797322 L68.1135484,51.6094583 L68.1135484,51.6129093 Z M65.1186636,53.2912477 L65.1186636,52.4618564 L68.1135484,52.4618564 L68.1135484,53.2935484 L65.1186636,53.2935484 L65.1186636,53.2912477 Z M66.1628571,55.0846196 C65.2907834,55.0846196 65.1186636,54.9845405 65.1186636,54.4818442 L65.1186636,54.2264699 L69.387235,54.2264699 L69.387235,49.8644005 L59.8747465,49.8644005 L59.8747465,54.9143701 L61.1254839,54.9143701 L61.1254839,54.2241692 L63.8679263,54.2241692 L63.8679263,54.4967985 C63.8679263,55.7886245 64.3498618,56.1325746 66.0710599,56.1325746 L69.1462673,56.1325746 C70.5691244,56.1325746 70.9248387,55.6724407 71.0969585,53.9469385 C70.710165,53.8724034 70.3405373,53.726523 70.0068664,53.5167133 C69.9150691,54.8511016 69.7773733,55.0800183 69.0659447,55.0800183 L66.1628571,55.0800183 L66.1628571,55.0846196 Z M86.8975576,49.4031163 L81.3323502,49.4031163 L81.3323502,48.085983 C82.9783004,47.1800614 84.4983251,46.0611712 85.8533641,44.7580645 L84.8665438,43.9827389 L84.5682028,44.0540596 L75.7097696,44.0540596 L75.7097696,45.3596896 L83.1453456,45.3596896 C82.1621239,46.14732 81.0963636,46.8254037 79.9668664,47.3819781 L79.9668664,49.4042666 L74.3213364,49.4042666 L74.3213364,50.7386549 L79.9668664,50.7386549 L79.9668664,54.6267864 C79.9668664,54.8844614 79.8865438,54.9569324 79.5882028,54.9718868 C79.2898618,54.9868411 78.2341935,54.9868411 77.1670507,54.9431284 C77.4105538,55.3782487 77.5994084,55.8419061 77.7293088,56.3235301 C78.6733118,56.3849001 79.6211431,56.3026785 80.5405991,56.0796592 C81.1283196,55.8790525 81.4700346,55.2659028 81.3323502,54.6589957 L81.3323502,50.7478576 L86.8975576,50.7478576 L86.8975576,49.4134693 L86.8975576,49.4031163 Z M97.9591244,44.883451 L100.116359,44.883451 L100.116359,46.8493731 C100.116359,48.0687279 100.368802,48.5426659 101.504793,48.5426659 L102.560461,48.5426659 C102.834834,48.5559629 103.109615,48.5268642 103.375161,48.4563907 C103.3217,48.0853109 103.287231,47.7117297 103.271889,47.337115 C103.03522,47.3946935 102.792525,47.423658 102.548986,47.4233901 L101.608065,47.4233901 C101.378571,47.4233901 101.355622,47.2657943 101.355622,46.8643274 L101.355622,43.6525928 L96.7313364,43.6525928 L96.7313364,45.2020937 C96.8203355,46.4642767 96.0951042,47.6423671 94.9298157,48.1285453 C95.2455709,48.4202848 95.5266507,48.7476159 95.7674654,49.1040292 C97.1995466,48.3699763 98.0605014,46.8538891 97.9591244,45.2446561 L97.9591244,44.886902 L97.9591244,44.883451 Z M95.0789862,49.3594035 L93.8856221,49.6895496 L93.8856221,47.1933232 L95.515023,47.1933232 L95.515023,45.962465 L93.8856221,45.962465 L93.8856221,43.1648509 L92.6234101,43.1648509 L92.6234101,45.962465 L90.8333641,45.962465 L90.8333641,47.1967742 L92.6234101,47.1967742 L92.6234101,50.0369507 C91.8775576,50.2382593 91.2120276,50.4096592 90.6497696,50.5384967 L90.9940092,51.8153682 L92.6234101,51.3552343 L92.6234101,54.7268655 C92.6391873,54.8047289 92.615763,54.8853913 92.5607617,54.9425979 C92.5057604,54.9998045 92.4262156,55.0262396 92.3480184,55.0132988 C92.1758986,55.0132988 91.5906912,55.0132988 90.9710599,54.9983445 C91.1438617,55.3839715 91.270951,55.7885858 91.3497235,56.2038953 C92.025012,56.268138 92.7061677,56.1849391 93.3463134,55.9600243 C93.7738296,55.716539 93.9926621,55.2217678 93.8856221,54.7406695 L93.8856221,50.9836762 C94.3331336,50.8686427 94.8035945,50.7248509 95.251106,50.5822094 L95.0789862,49.3594035 Z M100.954009,50.6247718 C100.482637,51.5561048 99.8266797,52.3812336 99.0262673,53.0496774 C98.2092742,52.3888146 97.5406422,51.5624984 97.0641014,50.6247718 L100.954009,50.6247718 L100.954009,50.6247718 Z M101.837558,49.3329458 L101.619539,49.3755082 L95.4461751,49.3755082 L95.4461751,50.6236214 L96.146129,50.6236214 L95.8018894,50.7524589 C96.3136197,51.9002476 97.0422959,52.9377895 97.9476498,53.807748 C96.8448183,54.4458905 95.6420695,54.8920204 94.3905069,55.127182 C94.6746037,55.4925609 94.8921347,55.9053456 95.0330876,56.3465368 C96.4356203,56.0087192 97.7730961,55.4416883 98.9918433,54.6681984 C100.133519,55.4610829 101.414382,56.0305214 102.767005,56.3465368 C102.993858,55.9044567 103.271103,55.4902516 103.59318,55.1122276 C102.365975,54.8828565 101.186477,54.44644 100.104885,53.821552 C101.322352,52.7035975 102.214616,51.2755852 102.686682,49.6895496 L101.837558,49.3329458 Z M114.562949,45.7036397 L112.681106,45.7036397 L112.681106,44.7580645 L114.562949,44.7580645 L114.562949,45.70479 L114.562949,45.7036397 Z M117.684055,46.6940779 L117.684055,48.0744796 L115.790737,48.0744796 L115.790737,46.6940779 L117.684055,46.6940779 Z M112.681106,46.6940779 L114.562949,46.6940779 L114.562949,48.0744796 L112.681106,48.0744796 L112.681106,46.6940779 Z M109.674747,46.6940779 L111.476267,46.6940779 L111.476267,48.0744796 L109.674747,48.0744796 L109.674747,46.6940779 Z M111.476267,45.7036397 L108.458433,45.7036397 L108.458433,49.0787219 L118.980691,49.0787219 L118.980691,45.70479 L115.790737,45.70479 L115.790737,44.7580645 L119.680645,44.7580645 L119.680645,43.6813512 L107.643733,43.6813512 L107.643733,44.7569142 L111.476267,44.7569142 L111.476267,45.7036397 L111.476267,45.7036397 Z M118.269263,50.8974011 L118.269263,49.8505965 L109.146912,49.8505965 L109.146912,50.8974011 L118.269263,50.8974011 Z M110.363226,53.0209191 C109.528776,53.9384149 108.512689,54.6714347 107.379816,55.1731954 C107.643733,55.374504 108.125668,55.8334875 108.343687,56.0486001 C109.571027,55.3929959 110.664747,54.5123204 111.568065,53.4522946 L110.363226,53.0209191 Z M115.595668,53.752532 C116.745573,54.3948163 117.826117,55.1546302 118.820046,56.0198418 L119.852765,55.2445161 C118.820839,54.4152941 117.714551,53.6836266 116.548065,53.0588801 L115.595668,53.752532 Z M107.460138,51.7003348 L107.460138,52.7758977 L113.03682,52.7758977 L113.03682,56.3338831 L114.321982,56.3338831 L114.321982,52.7770481 L119.944562,52.7770481 L119.944562,51.7014851 L107.460138,51.7014851 L107.460138,51.7003348 Z M136.318894,50.0898661 L130.696313,50.0898661 L130.696313,45.388448 L135.515668,45.388448 L135.515668,44.082818 L124.522949,44.082818 L124.522949,45.388448 L129.342304,45.388448 L129.342304,50.0944674 L123.788571,50.0944674 L123.788571,51.4426598 L129.342304,51.4426598 L129.342304,56.3258308 L130.696313,56.3258308 L130.696313,51.4484114 L136.318894,51.4484114 L136.318894,50.0944674 L136.318894,50.0898661 Z M125.429447,46.3455265 C125.931442,47.3513092 126.320151,48.4100062 126.588387,49.502045 L127.839124,49.0718198 C127.548338,47.9955102 127.13643,46.9558331 126.611336,45.972818 L125.429447,46.3455265 Z M133.163364,49.5158491 C133.778373,48.4808131 134.326459,47.4072599 134.80424,46.3018138 L133.415806,45.9141509 C133.051458,47.0282424 132.59072,48.1082947 132.038848,49.1419903 L133.163364,49.5158491 Z M148.73447,51.4817712 L148.73447,54.2644309 L142.354562,54.2644309 L142.354562,51.4863725 L148.73447,51.4863725 L148.73447,51.4817712 Z M141.034977,56.3131771 L142.354562,56.3131771 L142.354562,55.5608582 L148.73447,55.5608582 L148.73447,56.2924711 L150.122903,56.2924711 L150.122903,50.2095009 L141.034977,50.2095009 L141.034977,56.3258308 L141.034977,56.3131771 Z M146.864101,45.3240292 C147.460783,45.8991966 148.103364,46.5893974 148.711521,47.2795983 L142.182442,47.5522276 C143.425148,46.3416249 144.550852,45.015904 145.544516,43.5927754 L144.236406,43.017608 C143.350497,44.451113 142.311668,45.7837537 141.138249,46.9920146 C140.835144,47.3671934 140.433856,47.650391 139.979309,47.8099026 C140.147533,48.2359255 140.289325,48.6719672 140.403871,49.1155326 C141.034977,48.8854656 141.93,48.8578576 149.652442,48.4414364 C149.945311,48.8184401 150.217288,49.2112968 150.467143,49.6182288 L151.557235,48.7865368 C150.486755,47.2672938 149.251407,45.8718335 147.873871,44.625776 L146.864101,45.3240292 Z" id="股東會電子投票平台" fill="#FFFFFF"></path>
                </g>
            </g>
        </g>
    </g>
</svg>