<svg id="圖層_1" data-name="圖層 1" xmlns="http://www.w3.org/2000/svg" viewBox="0 0 311.05 91.09"><defs><style>.cls-1{fill:#040000;}.cls-2{fill:#fff;}</style></defs><title>ic_app_store</title><rect class="cls-1" width="311.05" height="91.09" rx="11.95" ry="11.95"/><path class="cls-2" d="M209.16,419.31c-0.07-7.53,6.17-11.2,6.45-11.36A13.86,13.86,0,0,0,204.68,402c-4.59-.48-9.05,2.75-11.39,2.75s-6-2.7-9.88-2.63a14.54,14.54,0,0,0-12.24,7.47c-5.29,9.16-1.34,22.63,3.73,30,2.54,3.63,5.5,7.68,9.38,7.54s5.21-2.42,9.8-2.42,5.87,2.42,9.83,2.33,6.64-3.64,9.09-7.3a29.79,29.79,0,0,0,4.15-8.47,13.09,13.09,0,0,1-8-12" transform="translate(-142.35 -376.15)"/><path class="cls-2" d="M201.68,397.16a13.33,13.33,0,0,0,3-9.55,13.57,13.57,0,0,0-8.78,4.54c-1.88,2.2-3.56,5.8-3.13,9.2,3.32,0.25,6.73-1.68,8.86-4.19" transform="translate(-142.35 -376.15)"/><path class="cls-2" d="M264.15,446.69h-5.3l-2.91-9.13h-10.1l-2.77,9.13H237.9l10-31.09h6.18Zm-9.09-13-2.63-8.12q-0.41-1.25-1.57-5.86h-0.09q-0.46,2-1.48,5.86l-2.58,8.12h8.35Z" transform="translate(-142.35 -376.15)"/><path class="cls-2" d="M289.84,435.2q0,5.72-3.11,9a9.11,9.11,0,0,1-6.91,3q-4.45,0-6.4-3.18v11.77h-5V431.64c0-2.4-.06-4.85-0.19-7.37h4.38l0.28,3.55H273a8.87,8.87,0,0,1,14.18-.88,12.4,12.4,0,0,1,2.65,8.26m-5.07.18a9.24,9.24,0,0,0-1.48-5.4,5.11,5.11,0,0,0-4.34-2.21,5.18,5.18,0,0,0-3.34,1.22,5.67,5.67,0,0,0-2,3.21,6.52,6.52,0,0,0-.23,1.51v3.74a6,6,0,0,0,1.5,4.13,5,5,0,0,0,3.9,1.68,5.1,5.1,0,0,0,4.38-2.17,9.52,9.52,0,0,0,1.57-5.72" transform="translate(-142.35 -376.15)"/><path class="cls-2" d="M315.62,435.2q0,5.72-3.11,9a9.12,9.12,0,0,1-6.91,3q-4.45,0-6.4-3.18v11.77h-5V431.64c0-2.4-.06-4.85-0.18-7.37h4.38l0.28,3.55h0.09a8.87,8.87,0,0,1,14.18-.88,12.41,12.41,0,0,1,2.65,8.26m-5.08.18a9.25,9.25,0,0,0-1.48-5.4,5.1,5.1,0,0,0-4.33-2.21,5.18,5.18,0,0,0-3.35,1.22,5.67,5.67,0,0,0-2,3.21,6.59,6.59,0,0,0-.23,1.51v3.74a6,6,0,0,0,1.5,4.13,5,5,0,0,0,3.9,1.68A5.09,5.09,0,0,0,309,441.1a9.53,9.53,0,0,0,1.57-5.72" transform="translate(-142.35 -376.15)"/><path class="cls-2" d="M344.45,438a8.31,8.31,0,0,1-2.76,6.46q-3,2.71-8.47,2.72a14.78,14.78,0,0,1-8.05-1.94l1.15-4.15a13.86,13.86,0,0,0,7.2,1.94,6.77,6.77,0,0,0,4.38-1.27,4.13,4.13,0,0,0,1.57-3.39,4.33,4.33,0,0,0-1.29-3.18,12,12,0,0,0-4.29-2.4q-8.17-3-8.17-8.9a7.84,7.84,0,0,1,2.88-6.27,11.38,11.38,0,0,1,7.63-2.45,15.08,15.08,0,0,1,7.06,1.48L342,420.67a12.34,12.34,0,0,0-6-1.43,6.07,6.07,0,0,0-4.12,1.3,3.69,3.69,0,0,0-1.25,2.81,3.8,3.8,0,0,0,1.43,3,16.13,16.13,0,0,0,4.52,2.4,15.28,15.28,0,0,1,5.9,3.78,7.88,7.88,0,0,1,1.9,5.39" transform="translate(-142.35 -376.15)"/><path class="cls-2" d="M361,428h-5.49v10.89q0,4.15,2.9,4.15a8.87,8.87,0,0,0,2.21-.23l0.14,3.78a11.26,11.26,0,0,1-3.87.55,6,6,0,0,1-4.62-1.8q-1.66-1.8-1.66-6V428h-3.27v-3.74h3.27v-4.11l4.89-1.48v5.58H361V428Z" transform="translate(-142.35 -376.15)"/><path class="cls-2" d="M385.68,435.29a12.28,12.28,0,0,1-3,8.49,10.53,10.53,0,0,1-8.21,3.41,10,10,0,0,1-7.87-3.27,11.93,11.93,0,0,1-2.93-8.26,12.2,12.2,0,0,1,3-8.53,10.47,10.47,0,0,1,8.14-3.32,10.24,10.24,0,0,1,7.93,3.27,11.78,11.78,0,0,1,2.86,8.2m-5.16.11a10,10,0,0,0-1.33-5.29,4.93,4.93,0,0,0-4.48-2.67,5,5,0,0,0-4.57,2.67,10.16,10.16,0,0,0-1.34,5.38,10,10,0,0,0,1.34,5.29,5.11,5.11,0,0,0,9,0,10.13,10.13,0,0,0,1.37-5.34" transform="translate(-142.35 -376.15)"/><path class="cls-2" d="M401.88,428.65a8.6,8.6,0,0,0-1.57-.14,4.71,4.71,0,0,0-4.06,2,7.47,7.47,0,0,0-1.24,4.43v11.76h-5V431.33q0-3.87-.15-7.05h4.34l0.18,4.29h0.14A7.69,7.69,0,0,1,397,425a6,6,0,0,1,3.6-1.2,8.26,8.26,0,0,1,1.25.09v4.75Z" transform="translate(-142.35 -376.15)"/><path class="cls-2" d="M424.16,434.42a11.7,11.7,0,0,1-.18,2.26H409a6.49,6.49,0,0,0,2.17,5.08,7.39,7.39,0,0,0,4.89,1.57,16.44,16.44,0,0,0,6-1.06l0.78,3.46a18.7,18.7,0,0,1-7.52,1.38,10.9,10.9,0,0,1-8.19-3.06,11.34,11.34,0,0,1-3-8.23,12.84,12.84,0,0,1,2.77-8.44,9.55,9.55,0,0,1,7.84-3.59,8.36,8.36,0,0,1,7.34,3.59,12.11,12.11,0,0,1,2,7.05m-4.75-1.29a6.74,6.74,0,0,0-1-3.83,4.36,4.36,0,0,0-4-2.08,4.72,4.72,0,0,0-4,2,7.45,7.45,0,0,0-1.47,3.88h10.37Z" transform="translate(-142.35 -376.15)"/><path class="cls-2" d="M252.67,404.47h-2.6L248.64,400h-5l-1.36,4.49h-2.54l4.92-15.27h3Zm-4.46-6.37-1.29-4c-0.14-.41-0.39-1.37-0.77-2.88h0c-0.15.65-.39,1.61-0.72,2.88l-1.27,4h4.1Z" transform="translate(-142.35 -376.15)"/><path class="cls-2" d="M265,393.46l-4.17,11H258.4l-4-11H257l1.88,5.82c0.32,1,.58,1.9.79,2.79h0.07c0.18-.8.44-1.73,0.79-2.79l1.85-5.82H265Z" transform="translate(-142.35 -376.15)"/><path class="cls-2" d="M276.06,404.47h-2.2l-0.18-1.27h-0.07a3.77,3.77,0,0,1-3.21,1.52,3.34,3.34,0,0,1-2.52-1,3.13,3.13,0,0,1-.86-2.24,3.42,3.42,0,0,1,1.69-3.08,8.74,8.74,0,0,1,4.75-1v-0.21a2,2,0,0,0-2.29-2.17,5.16,5.16,0,0,0-2.88.81l-0.5-1.61a7.08,7.08,0,0,1,3.78-1q4.33,0,4.33,4.56v4.06a16.9,16.9,0,0,0,.16,2.63m-2.54-3.78V399q-4.06-.07-4.06,2.22a1.66,1.66,0,0,0,.47,1.29,1.72,1.72,0,0,0,1.19.43,2.46,2.46,0,0,0,1.5-.51,2.08,2.08,0,0,0,.84-1.3Z" transform="translate(-142.35 -376.15)"/><path class="cls-2" d="M282.88,390.17a1.4,1.4,0,0,1-.44,1.07,1.54,1.54,0,0,1-1.11.41,1.4,1.4,0,0,1-1-.42,1.43,1.43,0,0,1-.42-1.05,1.37,1.37,0,0,1,.43-1,1.59,1.59,0,0,1,2.13,0,1.36,1.36,0,0,1,.43,1m-0.28,14.3h-2.45v-11h2.45v11Z" transform="translate(-142.35 -376.15)"/><rect class="cls-2" x="144.6" y="12.25" width="2.45" height="16.07"/><path class="cls-2" d="M302,404.47h-2.2l-0.18-1.27h-0.06a3.79,3.79,0,0,1-3.22,1.52,3.34,3.34,0,0,1-2.52-1,3.13,3.13,0,0,1-.86-2.24,3.43,3.43,0,0,1,1.69-3.08,8.74,8.74,0,0,1,4.75-1v-0.21a2,2,0,0,0-2.29-2.17,5.14,5.14,0,0,0-2.88.81l-0.5-1.61a7.08,7.08,0,0,1,3.78-1q4.33,0,4.33,4.56v4.06a17,17,0,0,0,.16,2.63m-2.54-3.78V399q-4.06-.07-4.06,2.22a1.66,1.66,0,0,0,.47,1.29,1.72,1.72,0,0,0,1.2.43,2.47,2.47,0,0,0,1.5-.51,2.09,2.09,0,0,0,.84-1.3Z" transform="translate(-142.35 -376.15)"/><path class="cls-2" d="M316.64,398.81a6.27,6.27,0,0,1-1.54,4.44,4.37,4.37,0,0,1-3.33,1.47,3.71,3.71,0,0,1-3.47-1.95h0l-0.13,1.7H306c0.06-.89.09-1.88,0.09-3v-13.1h2.45v6.66a3.8,3.8,0,0,1,3.53-1.84,4,4,0,0,1,3.27,1.53,6.11,6.11,0,0,1,1.27,4m-2.49.09a4.41,4.41,0,0,0-.73-2.63,2.6,2.6,0,0,0-3.78-.52,2.84,2.84,0,0,0-1,1.57,3.16,3.16,0,0,0-.09.77V400a2.75,2.75,0,0,0,.75,2,2.49,2.49,0,0,0,1.9.81,2.52,2.52,0,0,0,2.15-1,4.66,4.66,0,0,0,.77-2.83" transform="translate(-142.35 -376.15)"/><rect class="cls-2" x="177.91" y="12.25" width="2.45" height="16.07"/><path class="cls-2" d="M336.13,398.44a6.12,6.12,0,0,1-.09,1.11H328.7a3.2,3.2,0,0,0,1.06,2.49,3.64,3.64,0,0,0,2.41.77,8,8,0,0,0,3-.52l0.38,1.7a9.21,9.21,0,0,1-3.69.68,5.36,5.36,0,0,1-4-1.51,5.57,5.57,0,0,1-1.46-4A6.29,6.29,0,0,1,327.7,395a4.69,4.69,0,0,1,3.85-1.77,4.12,4.12,0,0,1,3.6,1.77,5.91,5.91,0,0,1,1,3.47m-2.34-.63a3.35,3.35,0,0,0-.47-1.88,2.15,2.15,0,0,0-2-1,2.34,2.34,0,0,0-2,1,3.71,3.71,0,0,0-.72,1.9h5.1Z" transform="translate(-142.35 -376.15)"/><path class="cls-2" d="M356.37,398.87a6,6,0,0,1-1.45,4.17,5.18,5.18,0,0,1-4,1.68,4.92,4.92,0,0,1-3.86-1.61,5.86,5.86,0,0,1-1.44-4.06,6,6,0,0,1,1.49-4.19,5.15,5.15,0,0,1,4-1.63,5,5,0,0,1,3.9,1.61,5.81,5.81,0,0,1,1.4,4m-2.54.06a4.92,4.92,0,0,0-.66-2.6A2.41,2.41,0,0,0,351,395a2.45,2.45,0,0,0-2.25,1.31,5,5,0,0,0-.66,2.64,4.94,4.94,0,0,0,.66,2.6,2.48,2.48,0,0,0,2.22,1.31,2.44,2.44,0,0,0,2.19-1.33,4.89,4.89,0,0,0,.68-2.62" transform="translate(-142.35 -376.15)"/><path class="cls-2" d="M369.56,404.47h-2.45v-6.32q0-2.93-2.22-2.92a2.2,2.2,0,0,0-1.77.8,2.82,2.82,0,0,0-.68,1.89v6.55H360V396.6c0-1,0-2-.09-3.15h2.15l0.11,1.7h0.07a3.52,3.52,0,0,1,1.27-1.31,4.15,4.15,0,0,1,2.22-.61,3.52,3.52,0,0,1,2.56,1,4.83,4.83,0,0,1,1.27,3.65v6.6Z" transform="translate(-142.35 -376.15)"/><path class="cls-2" d="M385.58,395.29h-2.69v5.35c0,1.36.47,2,1.42,2a4.17,4.17,0,0,0,1.08-.11l0.07,1.86a5.5,5.5,0,0,1-1.9.27,2.94,2.94,0,0,1-2.26-.88,4.34,4.34,0,0,1-.82-3v-5.55h-1.61v-1.83h1.61v-2l2.4-.72v2.74h2.7v1.84Z" transform="translate(-142.35 -376.15)"/><path class="cls-2" d="M398.52,404.47h-2.45v-6.28c0-2-.74-3-2.22-3a2.34,2.34,0,0,0-2.33,1.72,3,3,0,0,0-.11.88v6.64H389V388.41h2.45V395h0a3.71,3.71,0,0,1,3.31-1.79,3.42,3.42,0,0,1,2.52,1,5,5,0,0,1,1.24,3.69v6.55Z" transform="translate(-142.35 -376.15)"/><path class="cls-2" d="M411.12,398.44a5.56,5.56,0,0,1-.09,1.11h-7.34a3.19,3.19,0,0,0,1.06,2.49,3.62,3.62,0,0,0,2.4.77,8,8,0,0,0,3-.52l0.39,1.7a9.25,9.25,0,0,1-3.7.68,5.36,5.36,0,0,1-4-1.51,5.57,5.57,0,0,1-1.46-4,6.31,6.31,0,0,1,1.36-4.15,4.7,4.7,0,0,1,3.85-1.77,4.11,4.11,0,0,1,3.61,1.77,5.88,5.88,0,0,1,1,3.47m-2.34-.63a3.35,3.35,0,0,0-.47-1.88,2.14,2.14,0,0,0-2-1,2.33,2.33,0,0,0-2,1,3.65,3.65,0,0,0-.72,1.9h5.1Z" transform="translate(-142.35 -376.15)"/></svg>