<svg id="圖層_1" data-name="圖層 1" xmlns="http://www.w3.org/2000/svg" xmlns:xlink="http://www.w3.org/1999/xlink" viewBox="0 0 311.05 91.09"><defs><style>.cls-1{fill:#040000;}.cls-2,.cls-3{fill:#fff;}.cls-2{stroke:#fff;stroke-miterlimit:10;stroke-width:0.37px;}.cls-4{fill:url(#未命名漸層_5);}.cls-5{fill:url(#未命名漸層_2);}.cls-6{fill:url(#未命名漸層_3);}.cls-7{fill:url(#未命名漸層_4);}</style><linearGradient id="未命名漸層_5" x1="202.17" y1="238.93" x2="163.6" y2="277.5" gradientTransform="matrix(1, 0, 0, -0.99, -9.8, 684.03)" gradientUnits="userSpaceOnUse"><stop offset="0" stop-color="#3694d2"/><stop offset="0.01" stop-color="#3795d3"/><stop offset="0.26" stop-color="#2eb2e8"/><stop offset="0.51" stop-color="#42bfe7"/><stop offset="0.76" stop-color="#54c1df"/><stop offset="1" stop-color="#5ac2de"/></linearGradient><linearGradient id="未命名漸層_2" x1="229.84" y1="264.88" x2="174.22" y2="264.88" gradientTransform="matrix(1, 0, 0, -0.99, -9.8, 684.03)" gradientUnits="userSpaceOnUse"><stop offset="0" stop-color="#f4d825"/><stop offset="0.41" stop-color="#f5b819"/><stop offset="0.78" stop-color="#f5a118"/><stop offset="1" stop-color="#f3981a"/></linearGradient><linearGradient id="未命名漸層_3" x1="189.95" y1="250.98" x2="137.64" y2="303.29" gradientTransform="matrix(1, 0, 0, -0.99, -9.8, 684.03)" gradientUnits="userSpaceOnUse"><stop offset="0" stop-color="#e84045"/><stop offset="1" stop-color="#b7195d"/></linearGradient><linearGradient id="未命名漸層_4" x1="149.66" y1="238.49" x2="173.02" y2="261.85" gradientTransform="matrix(1, 0, 0, -0.99, -9.8, 684.03)" gradientUnits="userSpaceOnUse"><stop offset="0" stop-color="#359a6e"/><stop offset="0.07" stop-color="#31a06e"/><stop offset="0.48" stop-color="#47b46f"/><stop offset="0.8" stop-color="#5bb86d"/><stop offset="1" stop-color="#62ba6c"/></linearGradient></defs><title>ic_google_play</title><g id="g10"><g id="g12"><path id="path14" class="cls-1" d="M442.16,467.14h-288a11.49,11.49,0,0,1-11.52-11.39V387.44a11.49,11.49,0,0,1,11.52-11.39h288a11.49,11.49,0,0,1,11.52,11.39v68.32A11.49,11.49,0,0,1,442.16,467.14Z" transform="translate(-142.63 -376.06)"/><g id="g18"><path id="path20" class="cls-2" d="M251.88,399.38a6.18,6.18,0,0,1-1.71,4.56,6.78,6.78,0,0,1-5.09,2,7,7,0,0,1-5.08-2,7.23,7.23,0,0,1,0-10.17,7,7,0,0,1,5.08-2.06,7.31,7.31,0,0,1,2.84.58,5.62,5.62,0,0,1,2.16,1.52l-1.2,1.2a4.72,4.72,0,0,0-3.79-1.61,5.31,5.31,0,0,0-3.78,1.51,5.69,5.69,0,0,0,0,7.88,5.36,5.36,0,0,0,3.78,1.51,5.29,5.29,0,0,0,3.86-1.52A4.26,4.26,0,0,0,250.1,400h-5v-1.65h6.69A4.62,4.62,0,0,1,251.88,399.38Z" transform="translate(-142.63 -376.06)"/></g><g id="g22"><path id="path24" class="cls-2" d="M262.5,393.68h-6.29V398h5.67v1.65h-5.67V404h6.29v1.68h-8.07V392h8.07v1.68Z" transform="translate(-142.63 -376.06)"/></g><g id="g26"><path id="path28" class="cls-2" d="M270,405.65h-1.78v-12h-3.86V392h9.5v1.68H270v12Z" transform="translate(-142.63 -376.06)"/></g><g id="g30"><path id="path32" class="cls-2" d="M280.73,405.65V392h1.78v13.65h-1.78Z" transform="translate(-142.63 -376.06)"/></g><g id="g34"><path id="path36" class="cls-2" d="M290.38,405.65h-1.77v-12h-3.87V392h9.51v1.68h-3.87v12Z" transform="translate(-142.63 -376.06)"/></g><g id="g38"><path id="path40" class="cls-2" d="M312.23,403.9a7.24,7.24,0,0,1-10.14,0,7.33,7.33,0,0,1,0-10.14,7.21,7.21,0,0,1,10.13,0A7.3,7.3,0,0,1,312.23,403.9Zm-8.82-1.14a5.36,5.36,0,0,0,7.51,0,5.77,5.77,0,0,0,0-7.85,5.36,5.36,0,0,0-7.51,0A5.77,5.77,0,0,0,303.41,402.75Z" transform="translate(-142.63 -376.06)"/></g><g id="g42"><path id="path44" class="cls-2" d="M316.76,405.65V392h2.16l6.72,10.62h0.08L325.64,400v-8h1.78v13.65h-1.85l-7-11.14h-0.08l0.08,2.64v8.51h-1.77Z" transform="translate(-142.63 -376.06)"/></g><path id="path46" class="cls-3" d="M299.62,425.59a9.69,9.69,0,1,0,9.84,9.69A9.6,9.6,0,0,0,299.62,425.59Zm0,15.56a5.88,5.88,0,1,1,5.54-5.87A5.63,5.63,0,0,1,299.62,441.15Zm-21.45-15.56a9.69,9.69,0,1,0,9.83,9.69A9.6,9.6,0,0,0,278.16,425.59Zm0,15.56a5.88,5.88,0,1,1,5.52-5.87A5.64,5.64,0,0,1,278.16,441.15Zm-25.53-12.59v4.12h9.94a8.5,8.5,0,0,1-2.26,5.17,10.28,10.28,0,0,1-7.68,3,10.93,10.93,0,0,1,0-21.86,10.61,10.61,0,0,1,7.49,2.93l2.93-2.9a14.6,14.6,0,0,0-10.43-4.15,15,15,0,1,0,0,30.09,14,14,0,0,0,10.62-4.22,14.66,14.66,0,0,0,3.38-12.18h-14ZM357,431.75c-0.81-2.17-3.31-6.16-8.39-6.16s-9.24,3.93-9.24,9.69a9.53,9.53,0,0,0,9.72,9.68,9.74,9.74,0,0,0,8.17-4.29l-3.34-2.2a5.62,5.62,0,0,1-4.83,2.68,5,5,0,0,1-4.75-2.93l13.11-5.36ZM343.66,435a5.34,5.34,0,0,1,5.12-5.65,3.81,3.81,0,0,1,3.65,2.06ZM333,444.37h4.31V415.91H333v28.47ZM326,427.75h-0.14a6.83,6.83,0,0,0-5.15-2.16,9.69,9.69,0,0,0,0,19.37,6.73,6.73,0,0,0,5.15-2.2H326v1.39c0,3.7-2,5.69-5.23,5.69a5.44,5.44,0,0,1-4.94-3.46L312,447.93a9.35,9.35,0,0,0,8.69,5.73c5.05,0,9.31-2.94,9.31-10.09V426.18H326v1.57ZM321,441.15a5.89,5.89,0,0,1,0-11.74c2.93,0,5.23,2.49,5.23,5.9S324,441.15,321,441.15Zm56.17-25.24h-10.3v28.47h4.3V433.59h6c4.77,0,9.45-3.41,9.45-8.84S382,415.91,377.2,415.91Zm0.11,13.72h-6.12v-9.76h6.12A4.88,4.88,0,1,1,377.31,429.63Zm26.56-4.09c-3.1,0-6.33,1.35-7.66,4.36l3.81,1.58a4.08,4.08,0,0,1,3.93-2.09c2.23,0,4.49,1.32,4.52,3.66v0.3a9.53,9.53,0,0,0-4.49-1.1c-4.11,0-8.29,2.23-8.29,6.4,0,3.81,3.36,6.27,7.15,6.27a6.1,6.1,0,0,0,5.49-2.79h0.15v2.2h4.15V433.41C412.63,428.36,408.81,425.54,403.87,425.54Zm-0.52,15.6c-1.41,0-3.36-.69-3.36-2.41,0-2.2,2.44-3,4.56-3a7.78,7.78,0,0,1,3.93,1A5.2,5.2,0,0,1,403.35,441.14Zm24.39-15-4.94,12.34h-0.15l-5.11-12.34h-4.63l7.67,17.24-4.38,9.6h4.49l11.82-26.84h-4.78ZM389,444.37h4.31V415.91H389v28.47Z" transform="translate(-142.63 -376.06)"/><g id="g48"><path id="path64" class="cls-4" d="M166.68,393.22a4.5,4.5,0,0,0-1.07,3.2v50.36a4.5,4.5,0,0,0,1.07,3.2l0.17,0.15,28.55-28.21v-0.67l-28.55-28.21Z" transform="translate(-142.63 -376.06)"/></g><g id="g66"><path id="path78" class="cls-5" d="M204.9,431.34l-9.51-9.41v-0.67l9.52-9.41,0.21,0.12,11.27,6.34c3.22,1.8,3.22,4.76,0,6.57l-11.27,6.33Z" transform="translate(-142.63 -376.06)"/></g><g id="g80"><path id="path88" class="cls-6" d="M205.13,431.22l-9.73-9.62L166.68,450c1.07,1.11,2.81,1.24,4.79.13l33.66-18.9" transform="translate(-142.63 -376.06)"/></g><g id="g90"><path id="path104" class="cls-7" d="M205.13,412l-33.66-18.9c-2-1.1-3.72-1-4.79.15L195.4,421.6Z" transform="translate(-142.63 -376.06)"/></g></g></g></svg>